<svg xmlns="http://www.w3.org/2000/svg" width="64" height="64" viewBox="0 0 64 64"><path d="M44.321 32.945c-.546 0-.99.442-.99.988 0 .547.444.988.99.988h11.37v16.859h-46.469v-16.858h11.862c.549 0 .991-.441.991-.988 0-.546-.441-.988-.991-.988h-13.837v20.814h50.42v-20.815h-13.346zm-12.999 14.784c.228.229.531.346.834.346l.02-.005.02.005c.306 0 .609-.12.835-.346l6.603-6.601c.462-.463.462-1.211 0-1.673-.463-.461-1.21-.461-1.673 0l-4.581 4.583v-32.022c0-.652-.529-1.182-1.184-1.182-.651 0-1.183.53-1.183 1.182v32.062l-4.621-4.622c-.462-.461-1.21-.461-1.672 0-.462.462-.462 1.21 0 1.673l6.602 6.6z"/></svg>