<svg xmlns="http://www.w3.org/2000/svg" width="64" height="64" viewBox="0 0 64 64"><path d="M57.839 12.447c-2.444-3.209-6.288-5.054-11.758-5.641-.443-.045-.91-.073-1.391-.073-4.85 0-9.683 2.275-12.69 5.89-3.01-3.615-7.839-5.89-12.687-5.89-.481 0-.945.027-1.397.073-5.462.587-9.304 2.432-11.75 5.64-2.424 3.181-3.214 7.492-2.347 12.815 1.267 7.723 11.266 17.125 19.299 24.683l.184.173c2.237 2.106 4.17 3.926 5.429 5.28.17.191 1.704 1.87 3.383 1.87 1.69 0 3.19-1.705 3.327-1.869 1.338-1.45 3.51-3.507 5.653-5.533 7.943-7.536 17.831-16.915 19.084-24.607.872-5.319.086-9.628-2.339-12.811zm.319 12.481c-1.142 7.013-10.751 16.129-18.512 23.489-2.125 2.012-4.324 4.091-5.736 5.623-.351.413-1.236 1.181-1.796 1.181-.543 0-1.427-.706-1.867-1.198-1.323-1.422-3.278-3.264-5.543-5.396l-.184-.174c-7.809-7.345-17.527-16.486-18.683-23.523-.771-4.745-.114-8.528 1.957-11.245 2.084-2.736 5.468-4.321 10.334-4.845.382-.038.774-.062 1.185-.062 4.673 0 9.321 2.401 11.839 6.119l.848 1.247.847-1.247c2.518-3.718 7.167-6.119 11.844-6.119.409 0 .804.024 1.179.062 4.873.523 8.256 2.108 10.343 4.846 2.068 2.719 2.724 6.501 1.945 11.242z"/></svg>