<svg xmlns="http://www.w3.org/2000/svg" viewBox="0 0 1200 400" enable-background="new 0 0 1200 400"><path fill="#fff" d="M333.4 316.3c-7.8 0-14-3.6-18.1-7.7v6.8h-6.9v-72.5h6.9v25.7c4.1-4.1 10.4-7.6 18.1-7.6 15.7 0 25.9 11.5 25.9 27.6.1 16.1-10.3 27.7-25.9 27.7zm-1.7-49c-7 0-13.1 3.8-16.5 7.6v28.2c3.2 3.6 9.5 7.2 16.5 7.2 12.4 0 20.7-8.8 20.7-21.5 0-12.8-8.1-21.5-20.7-21.5zm90.3-5.3l-24.3 57c-4.3 10.4-8.9 16.5-19.3 16.5-5.3 0-9.6-2-12.2-3.6l1.2-5.8c2.7 1.8 6.1 3.5 10.9 3.5 6.8 0 9.6-3.8 12.4-10.5l1.8-4.2-25.6-52.9h7.7l21.3 45.7 19-45.7h7.1zm58.5-.8c7.7 0 14 3.5 18.1 7.6v-25.7h6.9v72.4h-6.9v-6.8c-4.1 4.2-10.3 7.7-18.1 7.7-15.7 0-26.1-11.6-26.1-27.7 0-16.2 10.4-27.5 26.1-27.5zm1.6 48.9c7 0 13.2-3.6 16.5-7.2v-28c-3.4-3.8-9.5-7.6-16.5-7.6-12.4 0-20.7 8.8-20.7 21.3.2 12.7 8.4 21.5 20.7 21.5zm67.9-49.5c8 0 14.9 2.7 19.9 7.2l-3.6 5.1c-3.8-3.6-9.2-6.1-15.9-6.1-12.8 0-21.5 9.2-21.5 21.6 0 12.4 8.6 21.7 21.5 21.7 6.9 0 12.2-2.4 15.9-6.1l3.6 5.1c-5 4.5-11.9 7.2-19.9 7.2-16.6 0-28.4-12.2-28.4-28.2.3-15.4 11.8-27.5 28.4-27.5zm39.5 44.4c3.6 0 5.5 2 5.5 5.8s-2 5.8-5.5 5.8c-3.6 0-5.5-1.9-5.5-5.8.1-3.7 2-5.8 5.5-5.8zm24.4-40.2c5-2.3 12.2-3.6 18.5-3.6 13.9 0 20.5 7.8 20.5 19.6v34.6h-6.9v-6.4c-3.8 3.6-9.6 7.6-18.4 7.6-11.6 0-18.9-6.2-18.9-16.2 0-13 11.1-18.9 25.9-18.9 4.2 0 8 .5 11.2 1.2v-1.7c0-9.2-4.6-13.8-13.9-13.8-6.1 0-11.9 1.2-16.6 3.6l-1.4-6zm15.4 45.8c8 0 13.2-3.8 16.5-6.9v-15.9c-2.3-.7-6.2-1.2-9.9-1.2-11.5 0-20.3 3.8-20.3 13 .1 7 5.3 11 13.7 11zm43.1-48.6h6.9v11.3c3.2-7.2 8.5-12.2 16.3-12.2 5 0 8.1 1.6 11.3 4.1l-2.8 5.8c-2.4-1.9-5.8-3.4-9.3-3.4-7.7 0-12.8 6.1-15.4 13.6v34h-6.9l-.1-53.2zm69.4-1.4c16.6 0 28.5 12 28.5 28.4 0 15.9-11.6 27.8-28.5 27.8-16.5 0-28.4-11.9-28.4-27.8.2-16.3 12.1-28.4 28.4-28.4zm0 49.6c13 0 21.7-9.3 21.7-21.5 0-12.4-8.8-21.7-21.7-21.7-12.7 0-21.5 9.5-21.5 21.7s9 21.5 21.5 21.5zm69.6-49.6c8 0 14.9 2.7 19.9 7.2l-3.6 5.1c-3.8-3.6-9.2-6.1-15.9-6.1-12.8 0-21.5 9.2-21.5 21.6 0 12.4 8.6 21.7 21.5 21.7 6.9 0 12.2-2.4 15.9-6.1l3.6 5.1c-5 4.5-11.9 7.2-19.9 7.2-16.6 0-28.4-12.2-28.4-28.2 0-15.4 11.6-27.5 28.4-27.5zm78.5 2.5l-28.7 23.9 30.4 27.1v1.1h-8.6l-29.2-26.6v26.6h-6.9v-72.4h6.9v42.4l27.8-23.5h8l.3 1.4zm-862.3-167.8v17.6c6.6-11.3 17.8-19.2 34-19.2 18.5 0 28.4 8.5 33 21.7 6.1-11.9 18.2-21.7 36.2-21.7 25.1 0 35.5 17.6 35.5 40.8v53.1h-12v-51.6c0-17.8-7.8-31.1-27-31.1-17 0-26.9 11.2-30.3 23.6v59.3h-12v-51.6c0-18.2-7.8-31.1-26.9-31.1-17.2 0-27.1 10.9-30.7 23.6v59h-12v-92.2h12.2v-.2zm173.4 4.9c8.5-3.8 21.1-6.3 32.1-6.3 24 0 35.4 13.6 35.4 33.9v60h-12v-11.2c-6.6 6.3-16.6 13-31.9 13-20.1 0-32.7-10.9-32.7-28 0-22.6 19.2-32.7 45-32.7 7.2 0 13.9.9 19.3 2.3v-2.8c0-15.8-8.1-23.9-24.2-23.9-10.4 0-20.7 2.3-28.9 6.3.1-.1-2.1-10.6-2.1-10.6zm26.7 79.5c13.8 0 22.8-6.6 28.6-11.9v-27.7c-4.1-1.1-10.7-2-17.3-2-19.9 0-35.3 6.6-35.3 22.4.3 12.5 9.6 19.2 24 19.2zm113.5-86c13.5 0 24.3 6.1 31.3 13.1v-44.4h12v125.5h-12v-11.6c-6.9 7.2-17.8 13.5-31.3 13.5-27.1 0-45.2-20.1-45.2-48s18.1-48.1 45.2-48.1zm2.7 85c12.3 0 22.8-6.2 28.6-12.4v-48.6c-5.8-6.6-16.5-13.1-28.6-13.1-21.6 0-35.7 15.3-35.7 37 .2 21.8 14.2 37.1 35.7 37.1zm156.6-1c-9.6 7.6-22.3 12.4-37.8 12.4-34.7 0-49.6-21.9-49.6-48.4 0-26.9 18.5-49 48.2-49 28 0 40.7 17.4 40.7 38.6 0 5.1-.7 11.2-1.6 14.6h-75.1c1.2 19.2 12.7 34 37.8 34 13.6 0 24.4-5.3 32.3-11.3l5.1 9.1zm-10.2-47.9c0-13.9-8.8-26.6-29.3-26.6-21.7 0-34.4 15.3-35.5 33h64.3c.3-1.8.5-4 .5-6.4zm230.6-34.5l-36.3 92.4h-14.9l-30.5-80.6-30.7 80.6h-14.9l-35.6-92.4h13l30.5 81.3 30.9-81.3h14.2l30.1 81.3 31.2-81.3h13zm30.1-33.6c4.6 0 7.8 1.9 7.8 7.6 0 5.4-3.2 7.6-7.8 7.6-5 0-8.1-2-8.1-7.6 0-5.9 3.2-7.6 8.1-7.6zm-6.1 33.6h12v92.4h-12v-92.4zm67-23.2v23.5h38.4v9.9h-38.6v54c0 13 6.1 19.3 17.3 19.3 7.2 0 16.5-3.2 21.9-7.2l4.2 9.6c-7.6 5-17.8 8.5-29.4 8.5-16.3 0-25.9-9.9-25.9-28v-56.2h-18.4v-10h18.6l1.2-23.5h10.8l-.1.1zm77-9.6v50.1c6.8-11.6 19-18.8 35.3-18.8 25.1 0 37 17.6 37 40.8v53.2h-12.2v-51.6c0-17.8-8.8-31.1-28.4-31.1-17 0-28.4 10.5-31.9 23.4v59.5h-11.9v-125.5h12.1z"/><path fill="#FF2329" d="M1180.9 117.2c0 12.2-5.1 22.8-13.5 30.4h.1l-44.8 44.8c-4.5 4.5-8.9 8.9-13.5 8.9s-8.9-4.5-13.5-8.9l-44.6-44.7h.1c-8.4-7.6-13.5-18.4-13.5-30.4 0-22.7 18.4-41.2 41.2-41.2 12.2 0 22.8 5.1 30.4 13.5 7.6-8.4 18.4-13.5 30.4-13.5 22.9 0 41.2 18.4 41.2 41.1z"/></svg>