<svg xmlns="http://www.w3.org/2000/svg" width="64" height="64" viewBox="0 0 64 64"><path d="M32 33.255l28.671-13.882-28.59-13.843-.081-.039-28.671 13.882 28.59 13.843.081.039zm0-25.924l24.875 12.042-24.875 12.044-24.874-12.044 24.874-12.042zm15.66 32.835l9.215 4.462-24.875 12.042-24.872-12.042 9.228-4.468-1.046-1.332-11.981 5.8 28.589 13.842.082.039 28.671-13.881-11.962-5.794zm0-12.441l9.215 4.461-24.875 12.039-24.872-12.039 9.228-4.467-1.046-1.334-11.981 5.801 28.589 13.841.082.039 28.671-13.88-11.962-5.795z" fill="#231F20"/></svg>