<svg xmlns="http://www.w3.org/2000/svg" width="50" height="50" viewBox="0 0 64 64" enable-background="new 0 0 64 64"><path fill="#fff" d="M32 4.695c-15.055 0-27.305 12.247-27.305 27.305 0 15.055 12.25 27.305 27.305 27.305s27.305-12.25 27.305-27.305c0-15.058-12.25-27.305-27.305-27.305zm0 52.635c-13.968 0-25.33-11.364-25.33-25.33 0-13.968 11.362-25.33 25.33-25.33 13.966 0 25.327 11.362 25.327 25.33 0 13.966-11.361 25.33-25.327 25.33zM32 22.225c-5.392 0-9.778 4.383-9.778 9.775 0 5.389 4.386 9.775 9.778 9.775 5.389 0 9.775-4.387 9.775-9.775 0-5.392-4.386-9.775-9.775-9.775zm0 17.576c-4.303 0-7.8-3.501-7.8-7.801 0-4.303 3.498-7.8 7.8-7.8 4.3 0 7.801 3.498 7.801 7.8 0 4.3-3.501 7.801-7.801 7.801zM27.278 53.424l-.098-10.2-7.749 6.746s3.159 3.454 7.847 3.454z"/></svg>