<svg xmlns="http://www.w3.org/2000/svg" viewBox="0 0 400 400" enable-background="new 0 0 400 400"><path fill="#fff" d="M65.3 208.5l-40.8 2.7c-5-80.7 45.4-154.5 122.7-179 45.4-14.4 94.3-9.3 136.3 13.2l38.8-41.4 10.5 115.7-122.3 4.3 43.9-47.4c-29.9-13.2-63.7-15.1-94.7-5.4-59.9 18.9-98.3 75.2-94.4 137.3zm310.2-19.8l-40.8 2.7c3.9 62.1-34.6 118.4-94.3 137.4-31.4 9.7-65.2 7.8-94.7-5.4l43.9-47-122.3 4.3 10.5 115.7 39.2-41.5c26 14 54.3 21.4 83.5 21.4 17.9 0 35.3-2.7 52.8-8.2 77.1-24.8 127.2-98.6 122.2-179.4z"/></svg>