<svg xmlns="http://www.w3.org/2000/svg" width="64" height="64" viewBox="0 0 64 64"><path d="M5.573 18.32v27.212h8.779l19.864 15.007v-57.078l-19.669 14.859h-8.974zm1.62 25.592v-23.972h6.816v23.972h-6.816zm25.402-37.194v50.564l-16.966-12.816v-24.932l16.966-12.816zm8.835 19.43l-.329.182c-.375.204-.742.372-1.09.501l-.439.157.238.406c.936 1.565 1.431 3.352 1.431 5.166 0 1.732-.451 3.446-1.301 4.959l-.14.248.265.283.144.156.329.407.046.057.249.309.345.416.285-.46c1.188-1.927 1.814-4.131 1.815-6.375 0-2.131-.572-4.235-1.657-6.084l-.191-.328zm5.458-4.859l-.313-.438-.318.434c-.264.364-.534.72-.801 1.056l-.176.222.16.24c2.001 2.908 3.06 6.282 3.06 9.757 0 3.99-1.327 7.754-3.84 10.886l-.185.231.401.539c.118.137.244.264.372.391l.269.276.304.326.279-.343c2.903-3.535 4.439-7.789 4.439-12.306.001-4.039-1.264-7.938-3.651-11.271zm4.596-6.892l-.324-.367-.28.398c-.25.349-.5.71-.752 1.083l-.165.248.197.22c4.019 4.61 6.231 10.498 6.23 16.579 0 5.987-2.175 11.819-6.121 16.421l-.25.293.285.252c.206.185.414.358.634.543l.631.537.253-.295c4.259-4.966 6.605-11.269 6.605-17.75.001-6.689-2.467-13.14-6.943-18.162z" fill="#221F1F"/></svg>