<?xml version="1.0" encoding="utf-8"?>
<!-- Generator: Adobe Illustrator 17.1.0, SVG Export Plug-In . SVG Version: 6.00 Build 0)  -->
<!DOCTYPE svg PUBLIC "-//W3C//DTD SVG 1.1//EN" "http://www.w3.org/Graphics/SVG/1.1/DTD/svg11.dtd">
<svg version="1.1" id="Layer_1" xmlns="http://www.w3.org/2000/svg" xmlns:xlink="http://www.w3.org/1999/xlink" x="0px" y="0px"
	 viewBox="0 0 400 400" enable-background="new 0 0 400 400" xml:space="preserve">
<path fill="#FFFFFF" d="M267.9,238.5c5-7,8.6-15.4,10.5-24.6c-7.3-1.4-14.5-2.9-21.7-4.6l-3.7-0.9c-4.3-1-8.4-2-12.5-2.8
	c-9.7,17.2-21.5,33.1-35.1,47.3c4.6,3.3,10,5.6,15.9,6.6C238.1,262.4,256.9,253.9,267.9,238.5L267.9,238.5z M223.5,204
	c-11.4,0.3-21.2,4.7-26.3,11.8c-5.4,7.5-5.7,18.8-0.7,27.5c0.3,0.4,0.5,0.9,0.8,1.3c11.8-12.2,22.1-25.9,30.7-40.5
	c-1,0-2.1-0.1-3.1-0.1L223.5,204L223.5,204z M72.3,194.6c26.8-13.5,52.9-28.7,77.8-45.5c13.6-11.9,28.3-22.5,43.8-31.7l6.5,9.5
	c-14,11-28.5,21.4-43.3,31.4c-8.6,7.6-16.7,15.6-24.4,24.2c-9.4,10.5-20.8,24.7-25.1,41.4c-4.2,16.2-0.2,32.7,10,41.9
	c9.5,8.6,25.3,11.1,40,6.5c10.3-3.2,20.4-9.4,31.3-19.4c-0.9-1.2-1.7-2.4-2.4-3.8c-7.3-12.7-6.7-28.7,1.3-39.9
	c7.3-10.1,20.1-16.2,35.3-16.6c3.7-0.1,7.4,0.1,11,0.6c10.5-20.4,18-42.3,21.7-64.9l2.4-14.4l8.1,12.2c13.3,20.1,21.1,39,24,57.5
	c1.1,7.1,1.3,14.2,0.9,21.1c35.5,5.8,71.4,7.4,107,5c0.2-3.2,0.2-6.4,0.2-9.7C398.5,90.4,309.6,1.5,200,1.5S1.6,90.3,1.6,199.9
	c0,5.5,0.2,11,0.7,16.4C26.9,215.7,51.7,205.1,72.3,194.6L72.3,194.6z M279,185.1c-2-13.1-6.8-26.5-14.6-40.5
	c-4.1,17.4-10.3,34.4-18.3,50.5c3.2,0.7,6.4,1.5,9.5,2.2c1.2,0.3,2.4,0.6,3.7,0.9c6.8,1.6,13.7,3,20.6,4.3
	C280.1,196.9,279.9,191,279,185.1L279,185.1z M383.8,221.8c-31.7,1.1-63.1-0.9-94.1-5.8c-2.2,10.8-6.4,20.8-12.5,29.3
	c-13.5,18.9-36.8,29.2-57.8,25.7c-8.4-1.4-16.1-4.9-22.4-9.8c-12.3,11.3-23.8,18.4-35.9,22.1c-6.1,1.9-12.3,2.8-18.3,2.8
	c-12.5,0-24.3-4.1-32.9-11.8c-13.4-12.1-18.7-33-13.5-53.3c3.7-14.5,11.8-27,20-37.2c-12.8,7.4-25.8,14.5-39,21.1
	c-21.5,10.9-47.5,22.1-73.9,23C17.2,324.2,99.9,398.3,200,398.3c102.4,0,186.6-77.6,197.3-177.1
	C392.9,221.4,388.3,221.6,383.8,221.8L383.8,221.8z"/>
</svg>
