<?xml version="1.0" encoding="utf-8"?>
<!-- Generator: Adobe Illustrator 17.1.0, SVG Export Plug-In . SVG Version: 6.00 Build 0)  -->
<!DOCTYPE svg PUBLIC "-//W3C//DTD SVG 1.1//EN" "http://www.w3.org/Graphics/SVG/1.1/DTD/svg11.dtd">
<svg version="1.1" id="Layer_1" xmlns="http://www.w3.org/2000/svg" xmlns:xlink="http://www.w3.org/1999/xlink" x="0px" y="0px"
	 viewBox="0 0 1200 400" enable-background="new 0 0 1200 400" xml:space="preserve">
<g>
	<path fill="#FFFFFF" d="M333.4,316.3c-7.8,0-14-3.6-18.1-7.7v6.8h-6.9v-72.5h6.9v25.7c4.1-4.1,10.4-7.6,18.1-7.6
		c15.7,0,25.9,11.5,25.9,27.6C359.4,304.7,349,316.3,333.4,316.3z M331.7,267.3c-7,0-13.1,3.8-16.5,7.6v28.2
		c3.2,3.6,9.5,7.2,16.5,7.2c12.4,0,20.7-8.8,20.7-21.5C352.4,276,344.3,267.3,331.7,267.3L331.7,267.3z M422,262l-24.3,57
		c-4.3,10.4-8.9,16.5-19.3,16.5c-5.3,0-9.6-2-12.2-3.6l1.2-5.8c2.7,1.8,6.1,3.5,10.9,3.5c6.8,0,9.6-3.8,12.4-10.5l1.8-4.2L366.9,262
		h7.7l21.3,45.7l19-45.7L422,262L422,262z M480.5,261.2c7.7,0,14,3.5,18.1,7.6v-25.7h6.9v72.4h-6.9v-6.8c-4.1,4.2-10.3,7.7-18.1,7.7
		c-15.7,0-26.1-11.6-26.1-27.7C454.4,272.5,464.8,261.2,480.5,261.2L480.5,261.2z M482.1,310.1c7,0,13.2-3.6,16.5-7.2v-28
		c-3.4-3.8-9.5-7.6-16.5-7.6c-12.4,0-20.7,8.8-20.7,21.3C461.6,301.3,469.8,310.1,482.1,310.1z M550,260.6c8,0,14.9,2.7,19.9,7.2
		l-3.6,5.1c-3.8-3.6-9.2-6.1-15.9-6.1c-12.8,0-21.5,9.2-21.5,21.6c0,12.4,8.6,21.7,21.5,21.7c6.9,0,12.2-2.4,15.9-6.1l3.6,5.1
		c-5,4.5-11.9,7.2-19.9,7.2c-16.6,0-28.4-12.2-28.4-28.2C521.9,272.7,533.4,260.6,550,260.6L550,260.6z M589.5,305
		c3.6,0,5.5,2,5.5,5.8c0,3.8-2,5.8-5.5,5.8c-3.6,0-5.5-1.9-5.5-5.8C584.1,307.1,586,305,589.5,305z M613.9,264.8
		c5-2.3,12.2-3.6,18.5-3.6c13.9,0,20.5,7.8,20.5,19.6v34.6h-6.9V309c-3.8,3.6-9.6,7.6-18.4,7.6c-11.6,0-18.9-6.2-18.9-16.2
		c0-13,11.1-18.9,25.9-18.9c4.2,0,8,0.5,11.2,1.2V281c0-9.2-4.6-13.8-13.9-13.8c-6.1,0-11.9,1.2-16.6,3.6L613.9,264.8L613.9,264.8z
		 M629.3,310.6c8,0,13.2-3.8,16.5-6.9v-15.9c-2.3-0.7-6.2-1.2-9.9-1.2c-11.5,0-20.3,3.8-20.3,13
		C615.7,306.6,620.9,310.6,629.3,310.6z M672.4,262h6.9v11.3c3.2-7.2,8.5-12.2,16.3-12.2c5,0,8.1,1.6,11.3,4.1l-2.8,5.8
		c-2.4-1.9-5.8-3.4-9.3-3.4c-7.7,0-12.8,6.1-15.4,13.6v34h-6.9L672.4,262z M741.8,260.6c16.6,0,28.5,12,28.5,28.4
		c0,15.9-11.6,27.8-28.5,27.8c-16.5,0-28.4-11.9-28.4-27.8C713.6,272.7,725.5,260.6,741.8,260.6z M741.8,310.2
		c13,0,21.7-9.3,21.7-21.5c0-12.4-8.8-21.7-21.7-21.7c-12.7,0-21.5,9.5-21.5,21.7S729.3,310.2,741.8,310.2z M811.4,260.6
		c8,0,14.9,2.7,19.9,7.2l-3.6,5.1c-3.8-3.6-9.2-6.1-15.9-6.1c-12.8,0-21.5,9.2-21.5,21.6c0,12.4,8.6,21.7,21.5,21.7
		c6.9,0,12.2-2.4,15.9-6.1l3.6,5.1c-5,4.5-11.9,7.2-19.9,7.2c-16.6,0-28.4-12.2-28.4-28.2C783,272.7,794.6,260.6,811.4,260.6
		L811.4,260.6z M889.9,263.1L861.2,287l30.4,27.1v1.1H883l-29.2-26.6v26.6h-6.9v-72.4h6.9v42.4l27.8-23.5h8L889.9,263.1z"/>
	<path fill="#FFFFFF" d="M27.6,95.3v17.6c6.6-11.3,17.8-19.2,34-19.2c18.5,0,28.4,8.5,33,21.7c6.1-11.9,18.2-21.7,36.2-21.7
		c25.1,0,35.5,17.6,35.5,40.8v53.1h-12V136c0-17.8-7.8-31.1-27-31.1c-17,0-26.9,11.2-30.3,23.6v59.3H85v-51.6
		c0-18.2-7.8-31.1-26.9-31.1c-17.2,0-27.1,10.9-30.7,23.6v59h-12V95.5h12.2L27.6,95.3L27.6,95.3z M201,100.2
		c8.5-3.8,21.1-6.3,32.1-6.3c24,0,35.4,13.6,35.4,33.9v60h-12v-11.2c-6.6,6.3-16.6,13-31.9,13c-20.1,0-32.7-10.9-32.7-28
		c0-22.6,19.2-32.7,45-32.7c7.2,0,13.9,0.9,19.3,2.3v-2.8c0-15.8-8.1-23.9-24.2-23.9c-10.4,0-20.7,2.3-28.9,6.3
		C203.2,110.7,201,100.2,201,100.2z M227.7,179.7c13.8,0,22.8-6.6,28.6-11.9v-27.7c-4.1-1.1-10.7-2-17.3-2
		c-19.9,0-35.3,6.6-35.3,22.4C204,173,213.3,179.7,227.7,179.7L227.7,179.7z M341.2,93.7c13.5,0,24.3,6.1,31.3,13.1V62.4h12v125.5
		h-12v-11.6c-6.9,7.2-17.8,13.5-31.3,13.5c-27.1,0-45.2-20.1-45.2-48S314.1,93.7,341.2,93.7z M343.9,178.7
		c12.3,0,22.8-6.2,28.6-12.4v-48.6c-5.8-6.6-16.5-13.1-28.6-13.1c-21.6,0-35.7,15.3-35.7,37C308.4,163.4,322.4,178.7,343.9,178.7
		L343.9,178.7z M500.5,177.7c-9.6,7.6-22.3,12.4-37.8,12.4c-34.7,0-49.6-21.9-49.6-48.4c0-26.9,18.5-49,48.2-49
		c28,0,40.7,17.4,40.7,38.6c0,5.1-0.7,11.2-1.6,14.6h-75.1c1.2,19.2,12.7,34,37.8,34c13.6,0,24.4-5.3,32.3-11.3L500.5,177.7
		L500.5,177.7z M490.3,129.8c0-13.9-8.8-26.6-29.3-26.6c-21.7,0-34.4,15.3-35.5,33h64.3C490.1,134.4,490.3,132.2,490.3,129.8
		L490.3,129.8z M720.9,95.3l-36.3,92.4h-14.9l-30.5-80.6l-30.7,80.6h-14.9L558,95.3h13l30.5,81.3l30.9-81.3h14.2l30.1,81.3
		l31.2-81.3H720.9L720.9,95.3z M751,61.7c4.6,0,7.8,1.9,7.8,7.6c0,5.4-3.2,7.6-7.8,7.6c-5,0-8.1-2-8.1-7.6
		C742.9,63.4,746.1,61.7,751,61.7z M744.9,95.3h12v92.4h-12V95.3z M811.9,72.1v23.5h38.4v9.9h-38.6v54c0,13,6.1,19.3,17.3,19.3
		c7.2,0,16.5-3.2,21.9-7.2l4.2,9.6c-7.6,5-17.8,8.5-29.4,8.5c-16.3,0-25.9-9.9-25.9-28v-56.2h-18.4V95.5h18.6l1.2-23.5h10.8
		L811.9,72.1L811.9,72.1z M888.9,62.5v50.1c6.8-11.6,19-18.8,35.3-18.8c25.1,0,37,17.6,37,40.8v53.2H949v-51.6
		c0-17.8-8.8-31.1-28.4-31.1c-17,0-28.4,10.5-31.9,23.4V188h-11.9V62.5H888.9L888.9,62.5z"/>
	<path fill="#FF2329" d="M1180.9,117.2c0,12.2-5.1,22.8-13.5,30.4h0.1l-44.8,44.8c-4.5,4.5-8.9,8.9-13.5,8.9
		c-4.6,0-8.9-4.5-13.5-8.9l-44.6-44.7h0.1c-8.4-7.6-13.5-18.4-13.5-30.4c0-22.7,18.4-41.2,41.2-41.2c12.2,0,22.8,5.1,30.4,13.5
		c7.6-8.4,18.4-13.5,30.4-13.5C1162.6,76.1,1180.9,94.5,1180.9,117.2L1180.9,117.2z"/>
</g>
</svg>
