<?xml version="1.0" encoding="utf-8"?>
<!-- Generator: Adobe Illustrator 17.1.0, SVG Export Plug-In . SVG Version: 6.00 Build 0)  -->
<!DOCTYPE svg PUBLIC "-//W3C//DTD SVG 1.1//EN" "http://www.w3.org/Graphics/SVG/1.1/DTD/svg11.dtd">
<svg version="1.1" id="Layer_1" xmlns="http://www.w3.org/2000/svg" xmlns:xlink="http://www.w3.org/1999/xlink" x="0px" y="0px"
	 viewBox="0 0 400 400" enable-background="new 0 0 400 400" xml:space="preserve">
<g>
	<path fill="#FFFFFF" d="M184,211.4c6.8-16,12.4-28.8,17.2-38c3.6-6.8,6.8-12.4,10-17.2s6.8-9.2,11.2-13.6c4.4-4.4,9.6-7.6,15.2-10
		c5.6-2.4,12-3.2,19.2-3.2h56.8v42.4c0,2,0.8,3.6,2,4.8c1.6,1.6,3.2,2,4.8,2c2,0,3.6-0.8,5.2-2l70.8-70.8c1.2-1.2,2-3.2,2-5.2
		s-0.8-3.6-2-5.2l-70-70.4c-1.6-1.6-3.6-2.4-5.2-2.4c-2,0-3.6,0.8-5.2,2c-1.2,1.2-2,3.2-2,5.2v42.4h-56.8c-10,0-19.6,1.2-28.4,3.6
		c-8.8,2.4-16.8,5.6-23.6,9.2s-13.6,8.8-20,15.2c-6.4,6.4-12,12.4-16.4,18.4s-9.2,13.2-14,22s-8.8,16.8-12,23.2
		c-3.2,6.8-6.8,14.8-10.8,24.4c-6.8,16-12.4,28.8-17.2,38c-3.6,6.8-6.8,12.4-10,17.2S98,252.6,93.6,257c-4.4,4.4-9.6,7.6-15.2,10
		s-12,3.2-19.2,3.2H8.8c-2,0-3.6,0.8-5.2,2c-1.2,1.2-2,3.2-2,5.2v42.4c0,2,0.8,3.6,2,5.2c1.2,1.2,3.2,2,5.2,2h49.6
		c10,0,19.6-1.2,28.4-3.6s16.8-5.6,23.6-9.2s13.6-8.8,20-15.2c6.4-6.4,12-12.4,16.4-18.4s9.2-13.2,14-22c4.8-8.8,8.8-16.8,12-23.2
		C176,229.4,179.6,221,184,211.4z"/>
	<path fill="#FFFFFF" d="M8.8,129.4h49.6c6.4,0,12.4,1.2,18,3.2s10,4.8,14,7.6s7.6,7.2,11.2,12.4s6.8,10,8.8,14c2.4,4,4.8,9.6,8,16
		c12-26.4,22-46.4,31.2-60c-23.6-33.2-54-50-90.8-50h-50c-2,0-3.6,0.8-5.2,2c-1.2,1.2-2,3.2-2,5.2v42.4c0,2,0.8,3.6,2,5.2
		C5.2,128.6,6.8,129.4,8.8,129.4z"/>
	<path fill="#FFFFFF" d="M326.4,223.8c-1.6-1.6-3.6-2.4-5.2-2.4c-2,0-3.6,0.8-5.2,2c-1.2,1.2-2,3.2-2,5.2V271h-56.8
		c-6.4,0-12.4-1.2-18-3.2s-10-4.8-14-7.6c-3.6-3.2-7.6-7.2-11.2-12.4c-3.6-5.2-6.8-10-8.8-14c-2.4-4-4.8-9.6-8-16
		c-12,26.4-22,46.4-30.8,60c4,5.6,8,10.8,12.4,15.6c4.4,4.4,8.4,8.4,12,12c4,3.2,8.4,6.4,13.2,8.8s9.2,4.8,12.8,6.4s8.4,3.2,14,4
		c5.6,1.2,10.4,2,14,2.4c4,0.4,9.2,0.8,15.6,1.2c6.8,0.4,12,0.4,16,0.4s10,0,18-0.4c8,0,14,0,18.8,0v42.4c0,2,0.8,3.6,2,4.8
		c1.6,1.6,3.2,2,4.8,2c2,0,3.6-0.8,5.2-2l70.8-70.8c1.2-1.2,2-3.2,2-5.2s-0.8-3.6-2-5.2L326.4,223.8z"/>
</g>
</svg>
