<?xml version="1.0" encoding="utf-8"?>
<!-- Generator: Adobe Illustrator 17.1.0, SVG Export Plug-In . SVG Version: 6.00 Build 0)  -->
<!DOCTYPE svg PUBLIC "-//W3C//DTD SVG 1.1//EN" "http://www.w3.org/Graphics/SVG/1.1/DTD/svg11.dtd">
<svg version="1.1" id="Layer_1" xmlns="http://www.w3.org/2000/svg" xmlns:xlink="http://www.w3.org/1999/xlink" x="0px" y="0px"
	 viewBox="0 0 400 400" enable-background="new 0 0 400 400" xml:space="preserve">
<path fill="#FFFFFF" d="M65.3,208.5l-40.8,2.7c-5-80.7,45.4-154.5,122.7-179c45.4-14.4,94.3-9.3,136.3,13.2L322.3,4l10.5,115.7
	l-122.3,4.3l43.9-47.4c-29.9-13.2-63.7-15.1-94.7-5.4C99.8,90.1,61.4,146.4,65.3,208.5z M375.5,188.7l-40.8,2.7
	c3.9,62.1-34.6,118.4-94.3,137.4c-31.4,9.7-65.2,7.8-94.7-5.4l43.9-47l-122.3,4.3l10.5,115.7l39.2-41.5c26,14,54.3,21.4,83.5,21.4
	c17.9,0,35.3-2.7,52.8-8.2C330.4,343.3,380.5,269.5,375.5,188.7z"/>
</svg>
