<?xml version="1.0" encoding="utf-8"?>
<!-- Generator: Adobe Illustrator 17.1.0, SVG Export Plug-In . SVG Version: 6.00 Build 0)  -->
<!DOCTYPE svg PUBLIC "-//W3C//DTD SVG 1.1//EN" "http://www.w3.org/Graphics/SVG/1.1/DTD/svg11.dtd">
<svg version="1.1" id="Layer_1" xmlns="http://www.w3.org/2000/svg" xmlns:xlink="http://www.w3.org/1999/xlink" x="0px" y="0px"
	 viewBox="0 0 400 400" enable-background="new 0 0 400 400" xml:space="preserve">
<path fill="#FFFFFF" d="M201.9,18.3c-3.7,2.7-7.5,5.4-11.2,8.1l-1.2-1.2L117.7,97H17v207h100.7l71.8,71.8l1.8-1.8
	c3.5,2.6,7.1,5.1,10.6,7.7C280.7,273.4,280.7,126.6,201.9,18.3z M197,360.7l-72-72V288H37V113h88v-0.7l72.4-72.4
	C261,137.3,260.8,263.4,197,360.7z"/>
<polygon fill="#FFFFFF" points="379.7,161.5 365.5,147.3 327,185.9 288.5,147.3 274.3,161.5 312.9,200 274.3,238.5 288.5,252.7 
	327,214.1 365.5,252.7 379.7,238.5 341.1,200 "/>
</svg>
