<?xml version="1.0" encoding="utf-8"?>
<!-- Generator: Adobe Illustrator 17.1.0, SVG Export Plug-In . SVG Version: 6.00 Build 0)  -->
<!DOCTYPE svg PUBLIC "-//W3C//DTD SVG 1.1//EN" "http://www.w3.org/Graphics/SVG/1.1/DTD/svg11.dtd">
<svg version="1.1" id="Layer_1" xmlns="http://www.w3.org/2000/svg" xmlns:xlink="http://www.w3.org/1999/xlink" x="0px" y="0px"
	 viewBox="0 0 400 400" enable-background="new 0 0 400 400" xml:space="preserve">
<g>
	<path fill="#FFFFFF" d="M291.5,322.6c-3.5-2.5-7-5.1-10.5-7.6c49.6-68.3,49.6-160.7,0-229c3.5-2.5,7-5.1,10.5-7.6
		C344.4,151.2,344.4,249.8,291.5,322.6z"/>
	<path fill="#FFFFFF" d="M333.1,368.3c-4.8-3.5-9.6-7-14.5-10.5c68.2-93.8,68.2-220.9,0-314.7c4.8-3.5,9.6-7,14.5-10.5
		C405.8,132.7,405.8,268.3,333.1,368.3z"/>
</g>
<path fill="#FFFFFF" d="M201.9,18.3c-3.7,2.7-7.5,5.4-11.2,8.1l-1.2-1.2L117.7,97H17v207h100.7l71.8,71.8l1.8-1.8
	c3.5,2.6,7.1,5.1,10.6,7.7C280.7,273.4,280.7,126.6,201.9,18.3z M197,360.7l-72-72V288H37V113h88v-0.7l72.4-72.4
	C261,137.3,260.8,263.4,197,360.7z"/>
</svg>
